<?xml version="1.0" encoding="utf-8"?>
<!-- Generator: Adobe Illustrator 27.0.1, SVG Export Plug-In . SVG Version: 6.00 Build 0)  -->
<svg version="1.1" id="Livello_1" xmlns="http://www.w3.org/2000/svg" xmlns:xlink="http://www.w3.org/1999/xlink" x="0px" y="0px"
	 viewBox="0 0 399 335" style="enable-background:new 0 0 399 335;" xml:space="preserve">
<style type="text/css">
	.st0{fill:#FFFFFF;stroke:#000000;stroke-width:0.1513;stroke-miterlimit:10;}
	.st1{fill:#FFFFFF;stroke:#000000;stroke-width:0.0889;stroke-miterlimit:10;}
</style>
<path class="st0" d="M319.04,200.54V303.4c0,17.18-13.93,31.1-31.1,31.1h-46.33c-1.51,0-2.74-1.23-2.74-2.74l0,0V231.05
	c0-17.18-13.93-31.1-31.1-31.1h-15.62c-17.18,0-31.1,13.93-31.1,31.1v100.71l0,0.02c0,1.49-1.22,2.71-2.71,2.71h-45.68
	c-17.18,0-31.1-13.93-31.1-31.1V199.99c0-0.71,0.28-1.39,0.79-1.9l100.3-100.3c0.5-0.5,1.19-0.79,1.9-0.79h30.98
	c0.71,0,1.39,0.28,1.9,0.79l100.85,100.85C318.76,199.14,319.04,199.82,319.04,200.54z"/>
<path class="st1" d="M391.14,219.54l-5.89,5.89c-11.1,11.1-29.09,11.1-40.19,0L200.02,80.4L54.87,225.56
	c-11.1,11.1-29.09,11.1-40.19,0l-5.89-5.89c-11.1-11.1-11.1-29.09,0-40.19L172.74,15.51c0,0,0.01-0.01,0.01-0.01l7.18-7.18
	c9.53-9.53,24.15-10.87,35.12-4.04c0,0,0,0,0,0c0.31,0.19,0.61,0.39,0.91,0.59c0.1,0.07,0.2,0.13,0.29,0.2
	c0.1,0.07,0.19,0.14,0.29,0.21c0.08,0.06,0.16,0.12,0.24,0.18c1.15,0.85,2.25,1.79,3.29,2.83l6.45,6.45l0.02,0.02l164.58,164.58
	C402.23,190.45,402.23,208.44,391.14,219.54z"/>
</svg>
