<?xml version="1.0" encoding="UTF-8"?>
<svg id="Livello_7" data-name="Livello 7" xmlns="http://www.w3.org/2000/svg" viewBox="0 0 172.53 148.29">
  <defs>
    <style>
      .cls-1, .cls-2 {
        opacity: .1;
      }

      .cls-1, .cls-3, .cls-4, .cls-5 {
        fill: #fff;
      }

      .cls-4 {
        font-size: 4.73px;
      }

      .cls-4, .cls-5 {
        font-family: SourceSerifVariable-Roman, 'Source Serif Variable';
        font-variation-settings: 'wght' 389;
      }

      .cls-6 {
        fill: none;
        stroke: #fff;
        stroke-miterlimit: 10;
      }

      .cls-5 {
        font-size: 4.8px;
      }
    </style>
  </defs>
  <path class="cls-1" d="m82.82,54.67c-9.91,4.85-18.44,11-26,18.4-7.44,7.28-14.67,14.78-22.4,22.6-1.06-4.08-2.56-7.94-3.01-11.92-1.52-13.3.47-26.02,6.99-37.92,1.82-3.33,4.07-4.85,7.93-4.2,11.97,2.03,23.27,6.03,34.22,11.15.75.35,1.32,1.08,2.28,1.89Z"/>
  <path class="cls-1" d="m66.28,67.07c1.28,10.9,1.93,21.7,3.95,32.23,2.01,10.53,5.39,20.8,8.4,32.04-3.01-.69-5.73-1.08-8.3-1.93-14.88-4.9-25.45-14.98-33.23-28.23-.68-1.15-.79-3.66-.03-4.46,9.25-9.83,18.72-19.45,28.14-29.12.22-.22.59-.3,1.07-.54Z"/>
  <g>
    <path class="cls-1" d="m151.61,75.71c.66,31.06-26.46,65.61-67.42,63.77-34.19-1.53-61.12-31.07-61.13-64.62,0-30.71,25.74-64.38,64.23-63.94,41.82.48,64.84,33.93,64.33,64.79Zm-122.27.42c-.34,6.87.16,14.2,3.43,21.29,12.78,27.66,38.64,42.5,71.31,34.31,21.49-5.38,41.56-26.19,42.29-54.88.89-35.11-29.77-63.83-64.61-60.14-30.91,3.27-54.99,30.48-52.43,59.41Z"/>
    <path class="cls-2" d="m29.34,76.14c-2.56-28.94,21.51-56.14,52.43-59.41,34.84-3.69,65.5,25.03,64.61,60.14-.73,28.68-20.8,49.49-42.29,54.88-32.68,8.19-58.54-6.66-71.31-34.31-3.27-7.09-3.77-14.41-3.43-21.29Zm105.01,31.49c-23.42-2.91-45.26-8.33-64.52-22.27-.1,1.14-.24,1.67-.18,2.18,1.71,14.51,4.83,28.68,10.5,42.18.5,1.19,2.54,2.38,3.91,2.45,18.73.9,34.55-5.39,46.97-19.64,1.08-1.24,1.87-2.74,3.31-4.9Zm-44.8-13.34c1.02.76,1.33,1.11,1.72,1.27,13.47,5.43,27.51,8.58,41.92,9.9,1.49.14,4.05-1.56,4.62-3,2.53-6.4,5.21-12.88,6.56-19.58,2.2-10.97-.28-21.53-4.81-32.01-14.68,16.96-29.73,32.82-50.02,43.41Zm15.69-12.27c.97-.55,1.6-.79,2.1-1.2,10.37-8.41,19.76-17.78,28.12-28.21,2.48-3.09,2.35-5.61.09-8.79-9.3-13.12-21.81-21.32-37.38-24.98-1.66-.39-3.39-.53-5.51-.85,9.66,20.63,9.97,42.38,12.58,64.03Zm-22.88-26.87c-.96-.81-1.53-1.54-2.28-1.89-10.95-5.12-22.26-9.12-34.22-11.15-3.86-.65-6.1.87-7.93,4.2-6.52,11.9-8.51,24.63-6.99,37.92.45,3.98,1.95,7.83,3.01,11.92,7.74-7.82,14.96-15.32,22.4-22.6,7.57-7.4,16.09-13.55,26-18.4Zm-16.54,12.4c-.48.23-.85.31-1.07.54-9.42,9.67-18.89,19.29-28.14,29.12-.76.81-.64,3.31.03,4.46,7.78,13.24,18.35,23.32,33.23,28.23,2.57.85,5.28,1.24,8.3,1.93-3.01-11.23-6.38-21.51-8.4-32.04-2.02-10.53-2.67-21.33-3.95-32.23Zm35.74-3.3c.11-.77.25-1.18.21-1.58-1.27-13.38-3.55-26.55-8.84-39.01-2.41-5.68-3.22-6.25-9.3-5.65-13.78,1.35-25.72,6.97-36,16.17-1,.9-1.86,2-2.63,3.12-1.29,1.89-.98,3.04,1.54,3.47,18.15,3.03,34.98,9.44,50.17,19.94,1.56,1.08,3.05,2.24,4.84,3.55Z"/>
    <path class="cls-1" d="m134.35,107.62c-1.44,2.16-2.23,3.65-3.31,4.9-12.42,14.25-28.24,20.53-46.97,19.64-1.38-.07-3.42-1.26-3.91-2.45-5.67-13.5-8.79-27.67-10.5-42.18-.06-.51.08-1.04.18-2.18,19.25,13.94,41.1,19.37,64.52,22.27Z"/>
    <path class="cls-1" d="m89.55,94.28c20.29-10.59,35.34-26.45,50.02-43.41,4.53,10.48,7.01,21.04,4.81,32.01-1.34,6.71-4.02,13.18-6.56,19.58-.57,1.44-3.13,3.13-4.62,3-14.42-1.33-28.45-4.48-41.92-9.9-.39-.16-.71-.51-1.72-1.27Z"/>
    <path class="cls-1" d="m105.24,82.01c-2.61-21.65-2.92-43.4-12.58-64.03,2.13.32,3.85.46,5.51.85,15.57,3.67,28.08,11.86,37.38,24.98,2.26,3.18,2.39,5.7-.09,8.79-8.36,10.43-17.75,19.8-28.12,28.21-.5.41-1.13.65-2.1,1.2Z"/>
    <path class="cls-1" d="m101.56,64.23c-1.78-1.31-3.28-2.48-4.84-3.55-15.19-10.5-32.02-16.9-50.17-19.94-2.52-.42-2.83-1.58-1.54-3.47.76-1.12,1.62-2.22,2.63-3.12,10.28-9.19,22.23-14.82,36-16.17,6.08-.6,6.89-.03,9.3,5.65,5.29,12.46,7.57,25.63,8.84,39.01.04.4-.1.81-.21,1.58Z"/>
  </g>
  <ellipse class="cls-6" cx="86.11" cy="72.29" rx="67.15" ry="66.34"/>
  <ellipse class="cls-6" cx="89.09" cy="77.56" rx="67.15" ry="66.34"/>
  <path class="cls-6" d="m19.19,55.01C27.72,29.69,52.23,10.88,81.82,8.62"/>
  <path class="cls-6" d="m132.03,127.03c-12.19,8.81-27.54,14.06-44.22,14.06"/>
  <text class="cls-4" transform="translate(104.08 131.27) rotate(165.78) scale(1.08 1)"><tspan x="0" y="0">P</tspan></text>
  <text class="cls-4" transform="translate(101.25 132.01) rotate(168.59) scale(1.08 1)"><tspan x="0" y="0">H</tspan></text>
  <text class="cls-4" transform="translate(97.46 132.77) rotate(171.55) scale(1.08 1)"><tspan x="0" y="0">O</tspan></text>
  <text class="cls-4" transform="translate(93.95 133.29) rotate(174.18) scale(1.08 1)"><tspan x="0" y="0">T</tspan></text>
  <text class="cls-4" transform="translate(90.98 133.6) rotate(176.78) scale(1.08 1)"><tspan x="0" y="0">O</tspan></text>
  <text class="cls-4" transform="translate(87.34 133.79) rotate(179.14) scale(1.08 1)"><tspan x="0" y="0">G</tspan></text>
  <text class="cls-4" transform="translate(83.95 133.82) rotate(-177.8) scale(1.08 1)"><tspan x="0" y="0">R</tspan></text>
  <text class="cls-4" transform="translate(80.61 133.7) rotate(-175.12) scale(1.08 1)"><tspan x="0" y="0">A</tspan></text>
  <text class="cls-4" transform="translate(77.3 133.41) rotate(-172.62) scale(1.08 1)"><tspan x="0" y="0">P</tspan></text>
  <text class="cls-4" transform="translate(74.4 133.05) rotate(-169.84) scale(1.08 1)"><tspan x="0" y="0">H</tspan></text>
  <text class="cls-4" transform="translate(70.48 132.34) rotate(-166.93) scale(1.08 1)"><tspan x="0" y="0">Y</tspan></text>
  <text class="cls-5" transform="translate(64.78 19.93) rotate(-17.13) scale(1.08 1)"><tspan x="0" y="0">M</tspan></text>
  <text class="cls-5" transform="translate(69.23 18.58) rotate(-13.86) scale(1.08 1)"><tspan x="0" y="0">A</tspan></text>
  <text class="cls-5" transform="translate(72.48 17.78) rotate(-11.2) scale(1.08 1)"><tspan x="0" y="0">R</tspan></text>
  <text class="cls-5" transform="translate(75.65 17.15) rotate(-8.66) scale(1.08 1)"><tspan x="0" y="0">C</tspan></text>
  <text class="cls-5" transform="translate(78.84 16.65) rotate(-5.94) scale(1.08 1)"><tspan x="0" y="0">O</tspan></text>
  <text class="cls-5" transform="translate(82.33 16.29) rotate(-3.41) scale(1.08 1)"><tspan x="0" y="0">L</tspan></text>
  <text class="cls-5" transform="translate(85.31 16.11) rotate(-1.09) scale(1.08 1)"><tspan x="0" y="0">L</tspan></text>
  <text class="cls-5" transform="translate(88.28 16.06) rotate(.86) scale(1.08 1)"><tspan x="0" y="0">I</tspan></text>
  <text class="cls-5" transform="translate(90.18 16.09) rotate(1.95) scale(1.08 1)"><tspan x="0" y="0"> </tspan></text>
  <text class="cls-5" transform="translate(91.37 16.12) rotate(3.58) scale(1.08 1)"><tspan x="0" y="0">F</tspan></text>
  <text class="cls-5" transform="translate(94.28 16.31) rotate(5.44) scale(1.08 1)"><tspan x="0" y="0">I</tspan></text>
  <text class="cls-5" transform="translate(96.17 16.48) rotate(7.41) scale(1.08 1)"><tspan x="0" y="0">L</tspan></text>
  <text class="cls-5" transform="translate(99.12 16.87) rotate(9.3) scale(1.08 1)"><tspan x="0" y="0">I</tspan></text>
  <text class="cls-5" transform="translate(101.01 17.17) rotate(11.28) scale(1.08 1)"><tspan x="0" y="0">P</tspan></text>
  <text class="cls-5" transform="translate(103.9 17.75) rotate(13.66) scale(1.08 1)"><tspan x="0" y="0">P</tspan></text>
  <text class="cls-5" transform="translate(106.85 18.45) rotate(16.36) scale(1.08 1)"><tspan x="0" y="0">O</tspan></text>
  <g>
    <path class="cls-3" d="m85.09,83.74c-.97.29-1.88.43-2.71.43-.14.04-.29.05-.43.05-7.61.69-15.17,1.79-22.67,3.3-.32.07-.6.13-.81.16-.47.07-.8.15-1,.24-.2.09-.32.23-.35.41-.04.18-.05.47-.05.87v2.54c-.04,6.39-.2,12.79-.49,19.21-.07,1.08-.16,2.15-.27,3.19l-.11.76c0,.29-.06.55-.19.78-.13.23-.37.37-.73.41h-.16c-.29,0-.51-.07-.65-.22-.18-.18-.29-.43-.32-.76-.11-.47-.2-.96-.27-1.46-.22-1.26-.47-2.53-.76-3.79-.69-3.07-1.43-6.09-2.25-9.06s-1.85-5.87-3.11-8.68c-.22-.5-.41-.86-.57-1.06-.16-.2-.36-.29-.6-.27-.23.02-.62.12-1.16.3h-.05c-3.21.79-6.26,2.07-9.14,3.84-.94.58-1.89.87-2.87.87-.47,0-.96-.07-1.46-.22-.11,0-.2-.03-.27-.08-.07-.05-.13-.15-.16-.3.14-.18.31-.3.49-.35.18-.05.36-.08.54-.08h.16c.54-.04,1.06-.18,1.57-.43,3.32-1.95,6.82-3.3,10.5-4.06.4-.11.78-.22,1.14-.32.18-.07.38-.13.6-.16-.04-.11-.05-.18-.05-.22,0-.14-.02-.23-.05-.27-1.73-3.9-4.13-7.31-7.2-10.23-5.7-5.05-17.92-8.35-25.53-9.9-2.27-.5-4.55-.96-6.82-1.35-1.26-.22-2.54-.45-3.84-.7-.47-.07-.94-.2-1.41-.38-.36-.18-.54-.38-.54-.6,0-.18.14-.4.43-.65.5-.4,1.05-.69,1.62-.87,2.42-.9,4.87-1.68,7.36-2.33,1.26-.32,2.54-.67,3.84-1.03,7.21-2.06,19.99-3.82,27.21-5.3,1.33-.25,2.69-.5,4.06-.76l8.33-1.52c.36-.07.61-.21.76-.41.14-.2.23-.46.27-.78.29-2.06.65-4.09,1.08-6.11.18-.72.32-1.42.43-2.11.04-.07.05-.16.05-.27.04-.25.1-.49.19-.7.09-.22.32-.32.68-.32.32,0,.51.08.57.24s.08.32.08.46v.27c0,.14.02.27.05.38.07,1.15.11,2.33.11,3.52v3.46l.05.38-.05.38v.11c0,.43.18.65.54.65.11,0,.23-.02.38-.05,11.9-2.31,23.99-4.24,36.25-5.79,12.26-1.55,24.39-2.53,36.36-2.92,4.51-.22,3.46-.32,7.97-.32,3.57,0,7.16.07,10.77.22,2.99.11,5.99.38,8.98.81,1.15.18,2.25.51,3.3.97.43.18.65.4.65.65,0,.22-.18.47-.54.76-.69.58-1.43,1.05-2.22,1.41-1.52.76-4.01,1.87-5.63,2.41-.22.11-.62.22-.84.22-.25,0-.17-.22-.42-.4.14-.07.13-.05.23-.09.25-.14.49-.25.7-.32,1.55-.54,3.96-1.65,5.36-2.41.54-.29,1.05-.61,1.52-.97.22-.14.32-.29.32-.43s-.13-.27-.38-.38c-1.05-.4-2.13-.65-3.25-.76-4.33-.58-8.68-.87-13.04-.87-2.02-.04-4.04-.05-6.06-.05-11.08,0-16.61.51-27.72,1.52-17.39,1.59-34.74,4.06-52.06,7.41-.54.07-.88.18-1,.32-.13.14-.19.49-.19,1.03,0,4.87-.14,9.79-.43,14.77-.04.61-.07,1.21-.11,1.79,0,.36-.02.74-.05,1.14-.25,4.4-.4,8.82-.43,13.26v.32c0,.51.07.81.22.92.07.07.22.11.43.11s.49-.04.81-.11c7.94-1.52,15.91-2.62,23.92-3.3.32-.04.63-.07.92-.11.43-.04.85-.07,1.24-.11.04,0,.06,0,.08.03.02.02.04.03.08.03.07.07.16.14.27.22ZM2.47,66.1c.07.04.13.07.16.11.07.07.14.11.22.11.58.14,1.14.27,1.68.38.72.14,1.42.27,2.11.38,4.04.65,8.01,1.53,11.9,2.65,5.19,1.55,15.35,3.83,19.33,6.84,3.99,3.01,7.17,7.01,9.55,11.99.18.32.36.51.54.57.18.05.34.08.49.08s.31-.02.49-.05l4-.97c.5-.11.99-.22,1.46-.32.4-.11.68-.2.84-.27.16-.07.26-.2.3-.38.04-.18.05-.47.05-.87l.11-2.6c.04-2.27.11-4.53.22-6.76l.22-3.68c.43-6.1.67-12.1.7-18.02v-.05l.05-.43-.05-.43c0-.18-.04-.3-.11-.35-.07-.05-.14-.08-.22-.08l-.22.05c-.4.07-.6.29-.6.65v.16l.05.22-.05.16c-.04.11-.13.18-.27.22h-.16c-.11,0-.2-.02-.27-.05-.11-.04-.16-.13-.16-.27-.07-.4-.17-.61-.3-.65-.13-.04-.23-.05-.3-.05-.18,0-.36.02-.54.05-2.45.47-4.89.94-7.31,1.41-1.19.22-2.4.43-3.63.65-6.64,1.34-18.84,2.94-25.48,4.82-1.52.4-3.01.79-4.49,1.19-.18.04-.34.07-.49.11-2.74.65-5.43,1.46-8.06,2.44-.07,0-.14.02-.22.05-.29.11-.57.23-.84.38-.27.14-.51.36-.73.65Zm53.13,22.29c-2.31.51-4.49,1.05-6.55,1.62-.36.11-.54.29-.54.54,0,.11.04.23.11.38.43.9.85,1.82,1.24,2.76,1.8,4.69,3.23,9.51,4.27,14.45l.32,1.41.11.32c.04.4.2.85.49,1.35.36-7.65.54-15.26.54-22.84Zm1.14-39.83c-.36,1.08-.61,2.2-.76,3.35l-.11.76v.32c.04.14.14.22.32.22s.33-.03.46-.08c.13-.05.19-.19.19-.41,0-.29.02-.56.05-.81.04-.32.05-.65.05-.97,0-.79-.07-1.59-.22-2.38Z"/>
    <path class="cls-3" d="m129.24,122.64c-.58.36-1.1.54-1.57.54-.4,0-.74-.13-1.03-.38-.69-.51-1.23-1.15-1.62-1.95-1.37-2.6-2.42-5.41-3.14-8.44-1.62-5.88-2.63-12.03-3.03-18.45-.11-2.53-.16-5.09-.16-7.68,0-3.32.09-6.66.27-10.01.14-2.81.32-5.63.54-8.44.25-3.25.45-6.48.6-9.69v-.6c0-.79-.05-1.57-.16-2.33v-.11c0-.14-.03-.29-.08-.43-.05-.14-.19-.23-.41-.27-.61.76-1.12,1.59-1.52,2.49l-.11.22c-1.91,3.93-3.7,7.92-5.36,11.96-3.61,8.08-6.48,16.29-8.6,24.62-.43,1.77-.79,3.54-1.08,5.3-.07.32-.14.67-.22,1.03-.04.14-.05.27-.05.38-.14.51-.43.81-.87.92h-.16c-.36,0-.56-.2-.6-.6-.04-.11-.05-.22-.05-.32-.07-.58-.11-1.14-.11-1.68.11-2.63.2-5.27.27-7.9.11-3.64.22-7.31.32-10.98l.32-16.45c.04-.65.05-1.32.05-2l.05-2.49-.05-2.44v-.43c0-1.12-.14-2.18-.43-3.19-.18-.69-.47-1.03-.87-1.03-.32,0-.72.27-1.19.81-1.12,1.23-2.07,2.56-2.87,4-2.99,5.19-5.61,10.5-7.85,15.91-6.35,15.15-10.59,30.45-12.72,45.89,0,.07-.02.16-.05.27-.04.32-.09.65-.16.97-.07.22-.18.39-.32.51-.14.13-.32.21-.54.24h-.16c-.25,0-.4-.14-.43-.43,0-.04-.02-.09-.05-.16-.07-.58-.13-1.15-.16-1.73-.32-5.74-.51-11.53-.54-17.37v-4.17c0-4.47.09-8.96.27-13.47.22-6.89,1.06-13.85,2.54-20.89.47-2.16,1.14-4.31,2-6.44.32-.9.79-1.75,1.41-2.54.65-.76,1.29-1.15,1.92-1.16.63-.02,1.09.37,1.38,1.16.43,1.23.65,2.54.65,3.95v.49c0,3.5-.38,7.05-1.14,10.66-1.59,8.08-3.73,16.13-6.44,24.13-.04.11-.07.2-.11.27-.04.14-.08.29-.14.43-.05.14-.17.25-.35.32-.32.14-.51.32-.57.51-.05.2-.08.41-.08.62v.16c.04,5.88.16,11.72.38,17.53,0,.14.02.31.05.49,0,.11.02.22.05.32.14-.22.25-.43.32-.65.07-.22.11-.43.11-.65.04-.07.05-.16.05-.27,2.24-12.05,5.72-23.97,10.44-35.77,2.53-6.46,5.56-12.73,9.09-18.83.76-1.41,1.66-2.72,2.71-3.95.65-.76,1.41-1.33,2.27-1.73.32-.11.61-.16.87-.16.54,0,.96.31,1.24.92.25.65.4,1.37.43,2.16.18,1.88.27,3.77.27,5.68,0,.83-.02,1.66-.05,2.49-.04.54-.05,1.08-.05,1.62-.07,6.42-.2,12.84-.38,19.26-.04,2.24-.11,4.49-.22,6.76l-.11,3.46v.32c-.04.18-.05.36-.05.54,0,.25.04.51.11.76.11-.04.19-.09.24-.16.05-.07.08-.16.08-.27v-.11c1.12-4.55,2.5-9.04,4.14-13.47,1.64-4.44,3.42-8.86,5.33-13.26,1.48-3.5,3.05-6.98,4.71-10.44.47-.97,1.01-1.91,1.62-2.81.47-.72,1.06-1.1,1.79-1.14.32.04.55.18.68.43.13.25.21.54.24.87.14,1.15.22,2.33.22,3.52,0,.83-.04,1.68-.11,2.54-.11,1.88-.23,3.75-.38,5.63-.25,3.86-.45,7.7-.6,11.53-.14,2.71-.22,5.39-.22,8.06,0,2.96.09,5.92.27,8.87.58,7.94,2.13,15.4,4.65,22.4.36.97.79,1.91,1.3,2.81.5,1.33,1.52,2.18,3.03,2.54Zm-54.54-30.03c.22-.22.37-.41.46-.57.09-.16.15-.33.19-.51.04-.07.05-.13.05-.16,2.92-8.66,5.12-17.33,6.6-26.03.4-2.16.6-4.29.6-6.39,0-1.08-.05-2.16-.16-3.25-.07-.94-.31-1.77-.7-2.49-.18-.36-.38-.54-.6-.54-.25,0-.52.25-.81.76-.61.94-1.1,1.93-1.46,2.98-1.08,3.25-1.86,6.49-2.33,9.74-.97,6.31-1.53,12.57-1.68,18.78l-.11,5.47c0,.72-.02,1.46-.05,2.22Z"/>
  </g>
</svg>